# xmcd
#
# Track frame offsets:
#	180
#	13257
#	27541
#	47961
#	61115
#	79479
#	88452
#	100438
#	110013
#	127740
#	144835
#	160391
#
# Disc length: 2322 seconds
#
# Revision: 0
# Processed by: cddbd v1.5.1PL0 Copyright (c) Steve Scherf et al.
# Submitted via: dBpowerAMP V4.0
#
DISCID=a809100c
DTITLE=Oscar Filho - Tons e Formas
DYEAR=1900
DGENRE=Gospel
TTITLE0=Tons e Formas
TTITLE1=Servo Sofredor
TTITLE2=Deus de Perto
TTITLE3=A Principal da Esquina
TTITLE4=Além do Blue
TTITLE5=Por Um Fio
TTITLE6=Hino da Gratidão
TTITLE7=Deus Forte
TTITLE8=Eclipse
TTITLE9=Amores
TTITLE10=Ai!
TTITLE11=Em Paz
EXTD=
EXTT0=
EXTT1=
EXTT2=
EXTT3=
EXTT4=
EXTT5=
EXTT6=
EXTT7=
EXTT8=
EXTT9=
EXTT10=
EXTT11=
PLAYORDER=
